<?xml version="1.0" standalone="no"?>
<!DOCTYPE svg PUBLIC "-//W3C//DTD SVG 20010904//EN"
 "http://www.w3.org/TR/2001/REC-SVG-20010904/DTD/svg10.dtd">
<svg version="1.0" xmlns="http://www.w3.org/2000/svg"
 width="233.000000pt" height="54.000000pt" viewBox="0 0 233.000000 54.000000"
 preserveAspectRatio="xMidYMid meet">
<metadata>
Created by potrace 1.13, written by Peter Selinger 2001-2015
</metadata>
<g transform="translate(0.000000,54.000000) scale(0.100000,-0.100000)"
fill="#000000" stroke="none">
<path d="M195 474 c-11 -3 -30 -7 -42 -10 -28 -6 -29 -18 -3 -51 17 -22 20
-41 20 -118 0 -77 -3 -97 -20 -118 -18 -22 -18 -26 -4 -38 17 -14 103 -18 147
-6 31 9 34 23 10 50 -26 28 -26 224 0 238 17 10 23 34 10 42 -13 8 -97 16
-118 11z"/>
<path d="M353 463 c-20 -7 -15 -31 7 -38 19 -6 20 -15 20 -125 0 -100 -3 -120
-17 -128 -51 -29 50 -63 126 -42 46 12 48 16 25 41 -9 10 -17 33 -17 51 -2 31
0 33 27 30 46 -5 114 25 131 58 30 59 13 115 -45 145 -21 11 -59 15 -137 14
-59 0 -114 -3 -120 -6z"/>
<path d="M738 454 c-49 -15 -59 -32 -33 -54 22 -18 21 -170 -1 -217 -22 -45
-9 -57 61 -57 64 0 82 12 65 43 -17 33 -9 122 13 135 15 9 21 7 33 -8 17 -23
19 -99 3 -128 -16 -30 3 -43 67 -42 59 0 85 14 66 37 -6 7 -14 50 -18 95 -6
72 -10 85 -32 102 -32 25 -63 25 -95 0 -40 -32 -47 -26 -47 45 0 74 -1 74 -82
49z"/>
<path d="M1135 369 c-50 -14 -87 -61 -92 -116 -5 -42 -1 -53 22 -81 53 -63
152 -63 222 2 29 26 36 40 37 72 2 95 -88 153 -189 123z"/>
<path d="M1405 363 c-67 -20 -73 -27 -52 -62 18 -31 15 -113 -6 -139 -18 -22
10 -37 69 -36 63 0 81 12 65 42 -16 30 -14 117 3 131 38 32 67 -36 47 -112
-14 -56 3 -71 73 -63 62 7 73 17 52 47 -10 15 -16 44 -16 81 0 78 -12 104 -55
118 -31 10 -40 9 -71 -9 -42 -25 -44 -25 -44 -7 0 23 -11 25 -65 9z"/>
<path d="M1763 365 c-68 -29 -93 -122 -50 -186 42 -63 153 -73 202 -19 22 24
13 56 -13 45 -39 -17 -73 -17 -92 0 -31 28 -24 35 39 35 77 0 91 6 91 39 0 76
-95 122 -177 86z"/>
<path d="M1999 350 c-16 -16 -29 -35 -29 -44 0 -19 21 -66 29 -66 4 0 22 -13
41 -29 30 -25 32 -30 18 -36 -12 -5 -29 2 -49 20 -36 29 -54 22 -44 -18 10
-38 25 -46 91 -49 135 -6 166 86 53 158 -29 18 -38 29 -31 36 11 11 25 7 57
-16 13 -10 25 -12 35 -6 12 8 12 13 -2 42 -15 33 -18 34 -78 35 -57 2 -65 -1
-91 -27z"/>
</g>
</svg>
